Patient4_TMGait_0pt3_02_left_07_EMG.mot
version=1
nRows=36
nColumns=33
inDegrees=no
endheader
time	1LAddLong	2LGlutMax	3LGlutMed	4LIliopsoas	5LSemiMemb	6LBicFemLong	7LRecFem	8LVastMed	9LVastLat	10LGasMed	11LTibAnt	12lTibPost	13LPeroneusLong	14LSol	15LExtDigLong	16LFlexDigLong	17RAddLong	18RGlutMax	19RGlutMed	20RIliopsoas	21RSemiMemb	22RBicFemLong	23RRecFem	24RVastMed	25RVastLat	26RGasMed	27RTibAnt	28RTibPost	29RPeroneusLong	30RSol	31RExtDigLong	32RFlexDigLong
14.895	-0.000458	0.014801	-0.095062	0.007782	0.011444	0.005188	-0.004425	-0.024109	0.19852	-0.034332	-0.2948	0.002441	0.095062	-0.14099	-0.042114	0.005951	-0.000305	0.014343	-0.21988	-0.13199	-0.025482	-0.08255	-0.29648	-0.055389	0.05661	-0.000458	0.12817	-0.00473	-0.052338	0.096741	-0.004272	-0.024109
14.896	-0.007019	0.032043	-0.040588	-0.005341	0.002136	0.003967	0.06424	-0.015717	0.089111	0.015411	-0.23148	-0.003052	0.22766	-0.049744	0.62042	-0.003052	-0.000916	0.063782	-0.041962	-0.14572	-0.036011	-0.029602	-0.34759	0.062561	0.18616	-0.003815	0.13534	0.006104	-0.066681	0.037384	0.00061	-0.015106
14.897	-0.003662	0.019989	-0.058441	0.00412	0.005188	-0.00412	0.030518	0.000305	0.038605	-0.012207	-0.009613	-0.004272	0.15732	-0.016937	0.76904	0.009613	0.016327	0.040588	-0.025482	-0.029602	-0.066833	0.02655	-0.18616	0.091858	0.27008	-0.003662	0.12177	-0.003662	-0.24246	-0.000916	0.001526	-0.011139
14.898	-0.005951	0.022736	-0.046539	0.011749	0.002594	0.00351	-0.016174	-0.002136	0.025177	-0.089722	0.021057	0.032806	-0.064697	-0.15808	-0.34973	0.005951	0.038147	0.005035	0.07309	0.13382	-0.13229	-0.018921	-0.13412	0.015564	0.18585	0.000916	0.10788	0.000458	-0.10712	0.018921	0.001373	-0.014648
14.899	0.000305	0.046692	-0.055389	0.00946	0.010071	0.00351	-0.035706	0.013275	0.021515	-0.040436	-0.012665	0.00473	-0.11795	-0.25864	-0.40192	-0.012512	0.021667	0.003662	-0.045624	0.1767	-0.098114	-0.004272	-0.091705	0.026398	0.25223	0	0.049133	-0.000458	0.037231	0.021515	0.001831	-0.00885
14.9	0.002136	0.020447	-0.055389	0.002747	0.006866	0.002899	0.001831	0.003815	0.013275	-0.055695	-0.062103	0.000763	-0.15762	-0.24262	-0.41397	-0.01236	-0.02533	0.009613	-0.037842	0.14771	-0.039978	0.026245	-0.085907	0.063171	0.20905	0.003967	0.018311	-0.00351	-0.20676	0.014801	0.000916	-0.00946
14.901	0.006561	0.068207	-0.063934	-0.001831	0.003967	0.017548	0.018005	0.010376	-0.022278	0.013733	-0.044861	-0.003967	-0.027466	-0.087585	-0.096283	-0.011444	-0.018158	0.003967	0.002747	0.051575	0.019379	0.007629	-0.10239	0.14969	0.14984	-0.003204	0.022125	-0.000153	0.15198	-0.003357	0.00061	-0.002136
14.902	-0.002899	0.10025	-0.11581	-0.001221	-0.004578	-0.009308	0.035095	0.004578	-0.006561	0.018158	0.010681	0.000305	-0.043793	-0.1181	0.15472	-0.008698	0.02533	0.006866	-0.29495	0.056	0.057678	-0.035248	-0.093079	0.10529	0.10742	-0.003052	0.10574	-0.000763	0.24826	0.000305	0.001373	-0.006409
14.903	-0.003357	0.059662	-0.11032	-0.001678	0.00412	0.001984	0.033264	0.001068	0.011292	-0.000916	0.014648	-0.000153	-0.15366	-0.15564	0.18433	-0.002289	0.048065	-0.004272	-0.23666	0.022125	0.035095	-0.084686	-0.01358	0	0.051575	-0.008545	0.30487	-0.000153	0.26566	0.005035	0.010529	-0.008087
14.904	0.000153	0.10376	-0.058746	-0.005493	0.001678	-0.011902	0.034332	0.016632	0.008698	0.009766	-0.055237	0.002289	0.07782	-0.06897	0.095062	-0.11414	0.076752	0.013733	0.060577	-0.045319	0.030518	-0.1088	0.042267	-0.067902	-0.041504	-0.012665	0.53314	-0.002594	0.089111	0.023041	-0.001221	-0.008545
14.905	-0.005188	0.11063	-0.074158	-0.00412	0.004578	-0.013885	0.011749	0.006866	0.015106	0.027924	-0.010223	-0.00412	0.19257	-0.062714	0.12573	-0.44189	0.06134	-0.018768	0.062256	-0.13977	-0.05249	-0.12009	0.036621	-0.18463	-0.10788	-0.011292	0.73944	-0.003204	0.011902	0.001221	0.000916	-0.013275
14.906	-0.003052	0.082397	-0.055695	-0.006866	0.011597	-0.023499	0.016022	0.006409	0.004425	0.087585	0.002899	0.003204	0.15595	-0.084686	0.11978	0.94284	0.004425	0.011444	0.16983	-0.22446	-0.18005	-0.082397	0.018768	-0.16068	-0.08194	-0.009003	0.25711	-0.002289	-0.03067	-0.055084	-0.001831	-0.004883
14.907	-0.010529	0.10162	-0.11063	0.001831	-0.004883	-0.021057	0.009003	0.006104	0.015259	0.14999	-0.015106	0.001373	-0.00946	-0.12268	0.07782	-0.31815	-0.050964	0.007019	0.028381	-0.091705	-0.2243	0.013275	0.012054	-0.11154	-0.042419	-0.000305	-0.028839	-0.000458	0.11505	-0.13489	-0.001068	-0.014801
14.908	-0.002747	0.063934	-0.12543	0.007782	0.001373	-0.03006	-0.000916	0.006104	0.014648	0.17517	-0.059052	0.004883	-0.20615	-0.093842	0.058746	0.041656	-0.050964	-0.036316	-0.10468	0.051575	-0.061493	0.048676	0.048676	-0.034027	0.011139	0.000153	-0.059052	-0.000458	0.057373	-0.20538	0.000305	-0.02533
14.909	-0.001984	0.05722	-0.09201	0.001984	0.007172	0.00412	0.015411	0.010223	0.00412	0.1503	-0.011749	-0.009766	-0.055847	-0.077667	0.079498	-0.18021	-0.020752	-0.042877	0.011597	0.12772	0.13123	0.020905	0.02594	0.036163	0.032043	-0.009613	-0.4483	0.007019	-0.022888	-0.14099	0.001221	-0.017548
14.91	-0.005188	0.038452	-0.12802	0.000153	0.003357	0.027924	0.0354	0.006866	0.02533	-0.13138	-0.004425	-0.005646	-0.042725	-0.095825	0.072937	0.45532	0.001678	0.006866	0.15152	-0.039673	0.14969	-0.029755	0.041199	0.037231	0.031891	-0.005951	-0.090179	-0.001831	-0.14877	-0.12054	-0.001984	-0.013275
14.911	-0.001984	0.03952	-0.085602	0.002899	0.001373	-0.002899	0.021515	-0.00351	0.007324	-0.24368	0.005188	-0.000153	-0.055847	-0.10864	0.043945	-0.00061	0.012665	-0.029907	-0.03006	-0.24765	0.042572	-0.046997	0.092316	0.098724	0.003815	0.004578	0.043793	-0.001984	0.033112	-0.15778	-0.001221	-0.013885
14.912	0.002289	0.002289	-0.014648	-0.00885	-0.007935	0.039063	0.030823	0.007324	0.002136	-0.14114	0.022278	-0.005341	-0.007172	-0.20111	0.026093	-0.33844	-0.009155	0.003815	0.050812	-0.17822	0.006104	-0.034485	0.1503	0.09613	0.031281	0.002899	-0.66498	-0.002594	0.27405	-0.11246	-0.000458	-0.013885
14.913	-0.005798	-0.011139	-0.02594	0.024872	0.001984	0.028687	0.048523	0.007019	-0.006714	-0.19791	0.020142	0.004272	0.001221	-0.20401	0.043335	0.077362	-0.02121	-0.051422	-0.002747	0.007782	0.14282	0.03006	0.087128	0.043335	0.016937	0.012817	-0.20966	-0.000458	0.17609	-0.033569	-0.00061	-0.016022
14.914	0.00061	-0.025177	-0.036011	0.013428	0.016022	0.011749	0.075226	0.011902	-0.016174	-0.16434	0.014191	0.000763	-0.011749	-0.31113	0.038452	-0.016174	-0.021667	-0.067139	-0.019073	0.20279	0.20203	0.065002	0.16953	0.024567	-0.011444	0.003052	0.13306	-0.003052	0.15289	0.086975	-0.000305	-0.00473
14.915	0.000763	-0.047607	-0.060883	0.012512	0.029907	0.014954	0.070343	0.009308	-0.020294	-0.11902	0.008087	0.002747	0.052643	-0.20844	0.52963	-0.043182	0.002136	-0.0737	0.019531	0.27908	0.12833	0.056915	0.19699	-0.030365	-0.13275	-0.001678	-0.09552	-0.001984	0.19043	0.12665	-0.001678	-0.008087
14.916	-0.003357	-0.045929	-0.0737	0.014191	0.025635	0.035858	0.052338	0.010376	-0.029297	-0.092163	0.056763	0.005646	0.050201	-0.017242	-0.15854	-0.020447	-0.010681	-0.069122	-0.018768	0.30167	0.081787	0.025787	0.046082	-0.074463	-0.26581	0.001373	-0.24628	-0.002136	0.15549	0.056915	0.005188	-0.012665
14.917	0.000305	-0.024719	-0.074615	0.007477	0.029297	0.025177	-0.000458	0.013275	-0.038757	-0.038452	0.091095	0.006256	-0.004578	0.058289	-0.030823	-0.027161	-0.009155	-0.031433	-0.017242	0.15854	0.091095	0.029907	0.036621	-0.056458	-0.28885	-0.005493	-0.42053	-0.003052	0.1535	0.16205	-0.001678	-0.014038
14.918	0.002289	-0.046234	-0.11627	0.003052	0.00885	-0.012512	-0.004425	0.016174	-0.049286	0.016632	0.084686	0.003815	-0.076141	-0.018768	-0.045166	-0.024567	0.001221	-0.039368	-0.039673	0.10864	0.11719	-0.021973	-0.053711	-0.058746	-0.27435	-0.007477	-0.31921	-0.006256	0.11475	0.18951	-0.001678	-0.011902
14.919	0.006104	-0.068207	-0.13886	0.009003	0.010529	-0.050354	0.011292	0.026245	0.024109	0.067902	0.086975	-0.003052	-0.081024	0.061493	-0.01297	-0.020142	-0.014343	0.004578	-0.053558	0.070648	0.097046	-0.00412	-0.34225	0.070648	-0.12894	-0.011749	-0.20721	0.00061	0.006561	0.17731	0.001678	-0.012512
14.92	-0.009613	-0.052185	-0.12665	0.003204	0.011902	-0.053406	0.046082	0.029755	0.043793	0.019379	0.044861	0.001984	-0.007477	0.048065	-0.009155	-0.020447	-0.019836	0.046997	-0.060272	-0.039063	0.12848	-0.000305	-0.39902	0.072784	0.23102	-0.007324	-0.28137	-0.004578	0.010529	0.10208	-0.001678	-0.010376
14.921	-0.001678	-0.062103	0.008698	0.011139	0.026245	-0.042114	0.034332	0.007629	0.059357	0.003052	0.043793	0.012512	-0.009308	0.15686	-0.049591	-0.011902	-0.021057	0.016785	-0.05127	-0.075073	0.15579	-0.002136	-0.034485	0.085297	0.31021	-0.001373	-0.22461	-0.003204	0.055084	0.039978	-0.001068	0.000153
14.922	0.003204	-0.081482	-0.15015	0.006104	0.019226	-0.010834	-0.064545	0.012054	0.08316	-0.018158	0.024109	0.006866	-0.054932	0.30502	-0.077362	-0.01358	-0.00351	0.038147	-0.064087	-0.046844	0.13168	0.00885	0.20126	-0.056915	0.096741	-0.003967	0.055542	-0.000458	0.027618	0.10147	-0.001678	-0.012665
14.923	-0.00061	-0.071869	-0.17029	0.019226	0.002136	0.006256	-0.079193	0.003357	0.088348	-0.018921	0.12146	0.002594	-0.032196	0.30365	-0.090332	-0.00824	-0.024109	0.023804	-0.035095	-0.002899	0.13306	0.036621	-0.012512	0.024719	-0.054779	-0.00351	0.17609	-0.002441	0.005951	0.13016	0	-0.009003
14.924	-0.000153	-0.065308	-0.13168	0.001678	0.008087	0.008392	0.016327	0.001373	-0.013123	-0.037231	-0.01358	-0.009613	-0.018768	0.25177	-0.11856	-0.004578	-0.019989	0.004578	-0.10513	0.05661	0.13687	0.045013	-0.10498	0.028229	-0.059052	-0.00885	0.18005	0.003357	-0.048523	0.1471	-0.000153	-0.018921
14.925	-0.00473	-0.064392	-0.047302	-0.002899	0.004425	0.028076	0.043793	0.011597	0.080566	-0.036621	-0.12741	-0.005798	-0.018311	0.18021	0.028381	-0.003815	0.00351	0.029907	-0.009613	-0.014648	0.13702	0.027161	-0.056763	-0.009918	0.001526	-0.002441	0.080109	-0.002136	-0.082703	0.085602	-0.002136	-0.015564
14.926	-0.01236	-0.11276	-0.084229	0.020752	0.00351	0.018158	0.033264	0.00061	0.055237	-0.02182	-0.07843	-0.001373	-0.005646	0.067291	0.045929	-0.003357	0.010681	0.074463	0.12116	-0.021362	0.14267	0.00351	0.006409	-0.043945	0.11856	0.007324	0.001678	-0.001984	-0.053253	0.024719	-0.002594	-0.022583
14.927	-0.006561	-0.097198	0.034027	0.001373	-0.012665	0.028076	0.044556	0.007019	0.027618	-0.011139	-0.035248	-0.012817	-0.020294	0.047913	0.024567	0.014038	0.029755	0.034943	-0.046844	-0.084076	0.14938	-0.024414	-0.057678	-0.084229	0.38284	-0.009003	-0.072937	-0.003052	-0.00473	0.035248	-0.001068	-0.007172
14.928	-0.014191	-0.10574	0.057373	-0.011597	-0.016022	0.030365	0.060577	0.00412	0.019379	0.007019	-0.022888	-0.002594	-0.061493	0.067139	-0.11429	0.008087	0.052338	0.056763	-0.22659	-0.079346	0.21179	-0.035553	-0.085602	-0.034027	0.51422	-0.006561	-0.047913	-0.001373	0.025024	0.024719	-0.002441	-0.008698
14.929	-0.008392	-0.096436	0.051422	-0.005493	0.000458	0.009308	0.036774	-0.001221	0.006866	0.021362	-0.024719	0.000916	-0.089569	0.068359	0.20126	0.0177	0.045471	0.028992	-0.27634	-0.081024	0.21301	-0.028381	-0.1593	0.071564	0.52078	-0.001373	0.10712	-0.000763	0.032654	0.010376	0.002899	-0.012054
14.93	-0.001221	-0.095978	-0.001984	0.003815	0.001373	-0.013885	0.027618	0.009003	0.010681	0.043945	0.030518	-0.007172	-0.048065	0.10361	-0.045624	0.012512	0.040436	0.03479	-0.21225	-0.076447	0.26047	0.008087	-0.10819	0.013885	0.43716	-0.003357	0.22873	0.000458	-0.014954	-0.007172	-0.00061	-0.011292
